<?xml version="1.0" ?>
<!-- Uploaded to: SVG Repo, www.svgrepo.com, Generator: SVG Repo Mixer Tools -->
<svg width="800px" height="800px" viewBox="0 0 20 20" version="1.1" xmlns="http://www.w3.org/2000/svg">
<g id="layer1">
<path d="M 3 0 L 3 20 L 17 20 L 17 19 L 16 19 L 4 19 L 4 1 L 12 1 L 12 4 L 12 5 L 16 5 L 16 12 L 17 12 L 17 5 L 17 4 L 13 0 L 12 0 L 3 0 z M 13 1.3535156 L 15.646484 4 L 13 4 L 13 1.3535156 z M 5 13 L 5 18 L 7 18 L 7.1835938 17.992188 L 7.3671875 17.964844 L 7.546875 17.923828 L 7.7226562 17.865234 L 7.8925781 17.791016 L 8.0527344 17.699219 L 8.2050781 17.595703 L 8.3476562 17.478516 L 8.4785156 17.347656 L 8.5957031 17.205078 L 8.6992188 17.052734 L 8.7910156 16.890625 L 8.8652344 16.722656 L 8.9238281 16.546875 L 8.9648438 16.367188 L 8.9921875 16.183594 L 9 16 L 9 15 L 8.9921875 14.816406 L 8.9648438 14.632812 L 8.9238281 14.451172 L 8.8652344 14.277344 L 8.7910156 14.107422 L 8.6992188 13.947266 L 8.5957031 13.794922 L 8.4785156 13.652344 L 8.3476562 13.521484 L 8.2050781 13.404297 L 8.0527344 13.298828 L 7.8925781 13.208984 L 7.7226562 13.134766 L 7.546875 13.076172 L 7.3671875 13.033203 L 7.1835938 13.007812 L 7 13 L 5 13 z M 10 13 L 10 13.5 L 10 15.5 A 0.50005 0.50005 0 0 0 10.052734 15.724609 L 11.052734 17.724609 A 0.50005 0.50005 0 0 0 11.853516 17.853516 L 12.5 17.207031 L 13.146484 17.853516 A 0.50005 0.50005 0 0 0 13.947266 17.724609 L 14.947266 15.724609 A 0.50005 0.50005 0 0 0 15 15.5 L 15 13.5 L 15 13 L 14 13 L 14 13.5 L 14 15.382812 L 13.363281 16.65625 L 13 16.292969 L 13 16 L 13 15.5 L 12 15.5 L 12 16 L 12 16.292969 L 11.636719 16.65625 L 11 15.382812 L 11 13.5 L 11 13 L 10 13 z M 18 13 L 17.816406 13.007812 L 17.632812 13.033203 L 17.453125 13.076172 L 17.277344 13.134766 L 17.107422 13.208984 L 16.947266 13.298828 L 16.794922 13.404297 L 16.652344 13.521484 L 16.521484 13.652344 L 16.404297 13.794922 L 16.300781 13.947266 L 16.208984 14.107422 L 16.134766 14.277344 L 16.076172 14.451172 L 16.035156 14.632812 L 16.007812 14.816406 L 16 15 L 16 16 L 16.007812 16.183594 L 16.035156 16.367188 L 16.076172 16.546875 L 16.134766 16.722656 L 16.208984 16.890625 L 16.300781 17.052734 L 16.404297 17.205078 L 16.521484 17.347656 L 16.652344 17.478516 L 16.794922 17.595703 L 16.947266 17.699219 L 17.107422 17.791016 L 17.277344 17.865234 L 17.453125 17.923828 L 17.632812 17.964844 L 17.816406 17.992188 L 18 18 L 18.183594 17.992188 L 18.367188 17.964844 L 18.546875 17.923828 L 18.722656 17.865234 L 18.892578 17.791016 L 19.052734 17.699219 L 19.205078 17.595703 L 19.347656 17.478516 L 19.478516 17.347656 L 19.595703 17.205078 L 19.699219 17.052734 L 19.791016 16.890625 L 19.865234 16.722656 L 19.923828 16.546875 L 19.964844 16.367188 L 19.992188 16.183594 L 20 16 L 20 15 L 18 15 L 18 16 L 19 16 L 18.992188 16.130859 L 18.966797 16.257812 L 18.923828 16.382812 L 18.865234 16.5 L 18.792969 16.607422 L 18.707031 16.707031 L 18.609375 16.792969 L 18.5 16.865234 L 18.382812 16.923828 L 18.259766 16.964844 L 18.130859 16.992188 L 18 17 L 17.869141 16.992188 L 17.740234 16.964844 L 17.617188 16.923828 L 17.5 16.865234 L 17.390625 16.792969 L 17.292969 16.707031 L 17.207031 16.607422 L 17.134766 16.5 L 17.076172 16.382812 L 17.033203 16.257812 L 17.007812 16.130859 L 17 16 L 17 15 L 17.007812 14.869141 L 17.033203 14.740234 L 17.076172 14.617188 L 17.134766 14.5 L 17.207031 14.390625 L 17.292969 14.292969 L 17.390625 14.207031 L 17.5 14.134766 L 17.617188 14.076172 L 17.740234 14.033203 L 17.869141 14.007812 L 18 14 L 18.130859 14.007812 L 18.259766 14.033203 L 18.382812 14.076172 L 18.5 14.134766 L 18.609375 14.207031 L 18.707031 14.292969 L 19.414062 13.585938 L 19.347656 13.521484 L 19.205078 13.404297 L 19.052734 13.298828 L 18.892578 13.208984 L 18.722656 13.134766 L 18.546875 13.076172 L 18.367188 13.033203 L 18.183594 13.007812 L 18 13 z M 6 14 L 7 14 L 7.1308594 14.007812 L 7.2597656 14.033203 L 7.3828125 14.076172 L 7.5 14.134766 L 7.609375 14.207031 L 7.7070312 14.292969 L 7.7929688 14.390625 L 7.8652344 14.5 L 7.9238281 14.617188 L 7.9667969 14.740234 L 7.9921875 14.869141 L 8 15 L 8 16 L 7.9921875 16.130859 L 7.9667969 16.257812 L 7.9238281 16.382812 L 7.8652344 16.5 L 7.7929688 16.607422 L 7.7070312 16.707031 L 7.609375 16.792969 L 7.5 16.865234 L 7.3828125 16.923828 L 7.2597656 16.964844 L 7.1308594 16.992188 L 7 17 L 6 17 L 6 14 z " style="fill:#222222; fill-opacity:1; stroke:none; stroke-width:0px;"/>
</g>
</svg>