<?xml version="1.0" ?>
<!-- Uploaded to: SVG Repo, www.svgrepo.com, Generator: SVG Repo Mixer Tools -->
<svg width="800px" height="800px" viewBox="0 0 20 20" version="1.1" xmlns="http://www.w3.org/2000/svg">
<g id="layer1">
<path d="M 3 0 L 3 20 L 17 20 L 17 19 L 16 19 L 4 19 L 4 1 L 12 1 L 12 4 L 12 5 L 16 5 L 16 12 L 17 12 L 17 5 L 17 4 L 13 0 L 12 0 L 3 0 z M 13 1.3535156 L 15.646484 4 L 13 4 L 13 1.3535156 z M 5 13 L 5 14 L 6.5 14 L 6.5 18 L 7.5 18 L 7.5 14 L 9 14 L 9 13 L 5 13 z M 10 13 L 10 14 C 10.000025 14.1326 10.05272 14.25976 10.146484 14.353516 L 11.292969 15.5 L 10.146484 16.646484 C 10.052716 16.74024 10.000025 16.8674 10 17 L 10 18 L 11 18 L 11 17.207031 L 12 16.207031 L 13 17.207031 L 13 18 L 14 18 L 14 17 C 13.999975 16.8674 13.94728 16.74024 13.853516 16.646484 L 12.707031 15.5 L 13.853516 14.353516 C 13.947284 14.25976 13.999975 14.1326 14 14 L 14 13 L 13 13 L 13 13.792969 L 12 14.792969 L 11 13.792969 L 11 13 L 10 13 z M 15 13 L 15 14 L 16.5 14 L 16.5 18 L 17.5 18 L 17.5 14 L 19 14 L 19 13 L 15 13 z " style="fill:#222222; fill-opacity:1; stroke:none; stroke-width:0px;"/>
</g>
</svg>