<?xml version="1.0" ?>
<!-- Uploaded to: SVG Repo, www.svgrepo.com, Generator: SVG Repo Mixer Tools -->
<svg width="800px" height="800px" viewBox="0 0 20 20" version="1.1" xmlns="http://www.w3.org/2000/svg">
<g id="layer1">
<path d="M 3 0 L 3 20 L 17 20 L 17 19 L 16 19 L 4 19 L 4 1 L 12 1 L 12 4 L 12 5 L 16 5 L 16 12 L 17 12 L 17 5 L 17 4 L 13 0 L 12 0 L 3 0 z M 13 1.3535156 L 15.646484 4 L 13 4 L 13 1.3535156 z M 6.5 13 A 1.5 1.4999999 0 0 0 5 14.5 A 1.5 1.4999999 0 0 0 6.5 16 L 7.5 16 A 0.5 0.5 0 0 1 8 16.5 A 0.5 0.5 0 0 1 7.5 17 L 5 17 L 5 18 L 7.5 18 A 1.5 1.4999999 0 0 0 9 16.5 A 1.5 1.4999999 0 0 0 7.5 15 L 6.5 15 A 0.5 0.5 0 0 1 6 14.5 A 0.5 0.5 0 0 1 6.5 14 L 9 14 L 9 13 L 6.5 13 z M 10 13 L 10 15 A 0.50005 0.50005 0 0 0 10.070312 15.257812 L 11.570312 17.757812 A 0.50005 0.50005 0 0 0 12.429688 17.757812 L 13.929688 15.257812 A 0.50005 0.50005 0 0 0 14 15 L 14 13 L 13 13 L 13 14.861328 L 12 16.527344 L 11 14.861328 L 11 13 L 10 13 z M 17 13 L 16.816406 13.007812 L 16.632812 13.033203 L 16.453125 13.076172 L 16.277344 13.134766 L 16.107422 13.208984 L 15.947266 13.298828 L 15.794922 13.404297 L 15.652344 13.521484 L 15.521484 13.652344 L 15.404297 13.794922 L 15.300781 13.947266 L 15.208984 14.107422 L 15.134766 14.277344 L 15.076172 14.451172 L 15.035156 14.632812 L 15.007812 14.816406 L 15 15 L 15 16 L 15.007812 16.183594 L 15.035156 16.367188 L 15.076172 16.546875 L 15.134766 16.722656 L 15.208984 16.890625 L 15.300781 17.052734 L 15.404297 17.205078 L 15.521484 17.347656 L 15.652344 17.478516 L 15.794922 17.595703 L 15.947266 17.699219 L 16.107422 17.791016 L 16.277344 17.865234 L 16.453125 17.923828 L 16.632812 17.964844 L 16.816406 17.992188 L 17 18 L 17.183594 17.992188 L 17.367188 17.964844 L 17.546875 17.923828 L 17.722656 17.865234 L 17.892578 17.791016 L 18.052734 17.699219 L 18.205078 17.595703 L 18.347656 17.478516 L 18.478516 17.347656 L 18.595703 17.205078 L 18.699219 17.052734 L 18.791016 16.890625 L 18.865234 16.722656 L 18.923828 16.546875 L 18.964844 16.367188 L 18.992188 16.183594 L 19 16 L 19 15 L 17 15 L 17 16 L 18 16 L 17.992188 16.130859 L 17.966797 16.257812 L 17.923828 16.382812 L 17.865234 16.5 L 17.792969 16.607422 L 17.707031 16.707031 L 17.609375 16.792969 L 17.5 16.865234 L 17.382812 16.923828 L 17.259766 16.964844 L 17.130859 16.992188 L 17 17 L 16.869141 16.992188 L 16.740234 16.964844 L 16.617188 16.923828 L 16.5 16.865234 L 16.390625 16.792969 L 16.292969 16.707031 L 16.207031 16.607422 L 16.134766 16.5 L 16.076172 16.382812 L 16.033203 16.257812 L 16.007812 16.130859 L 16 16 L 16 15 L 16.007812 14.869141 L 16.033203 14.740234 L 16.076172 14.617188 L 16.134766 14.5 L 16.207031 14.390625 L 16.292969 14.292969 L 16.390625 14.207031 L 16.5 14.134766 L 16.617188 14.076172 L 16.740234 14.033203 L 16.869141 14.007812 L 17 14 L 17.130859 14.007812 L 17.259766 14.033203 L 17.382812 14.076172 L 17.5 14.134766 L 17.609375 14.207031 L 17.707031 14.292969 L 18.414062 13.585938 L 18.347656 13.521484 L 18.205078 13.404297 L 18.052734 13.298828 L 17.892578 13.208984 L 17.722656 13.134766 L 17.546875 13.076172 L 17.367188 13.033203 L 17.183594 13.007812 L 17 13 z " style="fill:#222222; fill-opacity:1; stroke:none; stroke-width:0px;"/>
</g>
</svg>