<?xml version="1.0" ?>
<!-- Uploaded to: SVG Repo, www.svgrepo.com, Generator: SVG Repo Mixer Tools -->
<svg width="800px" height="800px" viewBox="0 0 20 20" version="1.1" xmlns="http://www.w3.org/2000/svg">
<g id="layer1">
<path d="M 3 0 L 3 20 L 17 20 L 17 19 L 16 19 L 4 19 L 4 1 L 12 1 L 12 4 L 12 5 L 16 5 L 16 12 L 17 12 L 17 5 L 17 4 L 13 0 L 12 0 L 3 0 z M 13 1.3535156 L 15.646484 4 L 13 4 L 13 1.3535156 z M 10 13 L 10 15 A 0.50005 0.50005 0 0 0 10.070312 15.257812 L 11.570312 17.757812 A 0.50005 0.50005 0 0 0 12.429688 17.757812 L 13.929688 15.257812 A 0.50005 0.50005 0 0 0 14 15 L 14 13 L 13 13 L 13 14.861328 L 12 16.527344 L 11 14.861328 L 11 13 L 10 13 z M 15 13 L 15 18 L 16 18 L 17.5 18 L 17.65625 17.992188 L 17.8125 17.966797 L 17.962891 17.927734 L 18.109375 17.871094 L 18.25 17.798828 L 18.382812 17.712891 L 18.503906 17.615234 L 18.615234 17.503906 L 18.712891 17.382812 L 18.798828 17.25 L 18.869141 17.109375 L 18.925781 16.962891 L 18.966797 16.8125 L 18.992188 16.65625 L 19 16.5 L 18.992188 16.34375 L 18.966797 16.1875 L 18.925781 16.037109 L 18.869141 15.890625 L 18.798828 15.75 L 18.712891 15.619141 L 18.615234 15.496094 L 18.503906 15.384766 L 18.382812 15.287109 L 18.304688 15.236328 L 18.369141 15.109375 L 18.425781 14.962891 L 18.466797 14.8125 L 18.492188 14.65625 L 18.5 14.5 L 18.492188 14.34375 L 18.466797 14.1875 L 18.425781 14.037109 L 18.369141 13.890625 L 18.298828 13.75 L 18.212891 13.617188 L 18.115234 13.496094 L 18.003906 13.384766 L 17.882812 13.287109 L 17.75 13.201172 L 17.609375 13.128906 L 17.462891 13.072266 L 17.3125 13.033203 L 17.15625 13.007812 L 17 13 L 16 13 L 15 13 z M 16 14 L 17 14 L 17.091797 14.007812 L 17.179688 14.033203 L 17.263672 14.074219 L 17.335938 14.130859 L 17.398438 14.199219 L 17.447266 14.277344 L 17.480469 14.363281 L 17.498047 14.453125 L 17.498047 14.546875 L 17.480469 14.636719 L 17.447266 14.722656 L 17.398438 14.800781 L 17.335938 14.869141 L 17.263672 14.925781 L 17.179688 14.964844 L 17.091797 14.990234 L 17 15 L 16 15 L 16 14 z M 16 16 L 17 16 L 17.5 16 L 17.591797 16.009766 L 17.679688 16.035156 L 17.763672 16.074219 L 17.835938 16.130859 L 17.898438 16.199219 L 17.947266 16.277344 L 17.980469 16.363281 L 17.998047 16.453125 L 17.998047 16.546875 L 17.980469 16.636719 L 17.947266 16.722656 L 17.898438 16.800781 L 17.835938 16.869141 L 17.763672 16.925781 L 17.679688 16.966797 L 17.591797 16.992188 L 17.5 17 L 16 17 L 16 16 z " style="fill:#222222; fill-opacity:1; stroke:none; stroke-width:0px;"/>
</g>
</svg>